<svg width="32" height="32" viewBox="0 0 32 32" fill="none" xmlns="http://www.w3.org/2000/svg">
<path d="M31 14.0001C30.998 12.1441 30.2599 10.3648 28.9476 9.0525C27.6353 7.74017 25.8559 7.00204 24 7.00005C23.7788 7.00005 23.5575 7.01255 23.3388 7.03255C22.7744 5.8279 21.8784 4.80903 20.7557 4.09527C19.6331 3.38152 18.3303 3.00244 17 3.00244C15.6697 3.00244 14.3669 3.38152 13.2443 4.09527C12.1217 4.80903 11.2257 5.8279 10.6613 7.03255C10.4425 7.01255 10.2213 7.00005 10 7.00005C8.411 7.00044 6.86939 7.54145 5.62861 8.53416C4.38783 9.52687 3.52173 10.9122 3.17268 12.4624C2.82364 14.0126 3.01241 15.6355 3.70798 17.0642C4.40354 18.4929 5.56451 19.6424 7.00002 20.3238V26.0001C7.00002 26.5305 7.21073 27.0392 7.58581 27.4143C7.96088 27.7893 8.46959 28.0001 9.00002 28.0001H25C25.5305 28.0001 26.0392 27.7893 26.4142 27.4143C26.7893 27.0392 27 26.5305 27 26.0001V20.3238C28.1959 19.7551 29.2063 18.8593 29.9141 17.7401C30.622 16.621 30.9985 15.3243 31 14.0001ZM25 26.0001H9.00002V20.9276C9.33117 20.9758 9.66537 21 10 21.0001H24C24.3347 21 24.6689 20.9758 25 20.9276V26.0001ZM24 19.0001H22.2813L22.97 16.2426C23.0293 15.9871 22.9858 15.7186 22.8489 15.4949C22.7121 15.2711 22.4928 15.1101 22.2384 15.0465C21.984 14.9829 21.7148 15.0218 21.4887 15.1548C21.2627 15.2878 21.098 15.5043 21.03 15.7576L20.2188 19.0001H18V16.0001C18 15.7348 17.8947 15.4805 17.7071 15.2929C17.5196 15.1054 17.2652 15.0001 17 15.0001C16.7348 15.0001 16.4804 15.1054 16.2929 15.2929C16.1054 15.4805 16 15.7348 16 16.0001V19.0001H13.7813L12.97 15.7576C12.94 15.6282 12.8846 15.5062 12.8069 15.3985C12.7293 15.2908 12.6309 15.1997 12.5177 15.1304C12.4044 15.0611 12.2785 15.0151 12.1473 14.995C12.0161 14.9749 11.8821 14.9811 11.7533 15.0133C11.6245 15.0455 11.5034 15.103 11.3971 15.1825C11.2908 15.262 11.2013 15.3619 11.134 15.4763C11.0667 15.5907 11.0228 15.7174 11.0049 15.849C10.9871 15.9805 10.9956 16.1143 11.03 16.2426L11.7188 19.0001H10C8.67394 19.0001 7.40217 18.4733 6.46449 17.5356C5.5268 16.5979 5.00002 15.3261 5.00002 14.0001C5.00002 12.674 5.5268 11.4022 6.46449 10.4645C7.40217 9.52684 8.67394 9.00005 10 9.00005H10.0725C10.0241 9.33119 9.99991 9.6654 10 10.0001C10 10.2653 10.1054 10.5196 10.2929 10.7072C10.4804 10.8947 10.7348 11.0001 11 11.0001C11.2652 11.0001 11.5196 10.8947 11.7071 10.7072C11.8947 10.5196 12 10.2653 12 10.0001C12 8.67397 12.5268 7.4022 13.4645 6.46452C14.4022 5.52684 15.6739 5.00005 17 5.00005C18.3261 5.00005 19.5979 5.52684 20.5356 6.46452C21.4732 7.4022 22 8.67397 22 10.0001C22 10.2653 22.1054 10.5196 22.2929 10.7072C22.4804 10.8947 22.7348 11.0001 23 11.0001C23.2652 11.0001 23.5196 10.8947 23.7071 10.7072C23.8947 10.5196 24 10.2653 24 10.0001C24.0001 9.6654 23.9759 9.33119 23.9275 9.00005H24C25.3261 9.00005 26.5979 9.52684 27.5356 10.4645C28.4732 11.4022 29 12.674 29 14.0001C29 15.3261 28.4732 16.5979 27.5356 17.5356C26.5979 18.4733 25.3261 19.0001 24 19.0001Z" fill="#FC8A22"/>
</svg>
